<svg 
 xmlns="http://www.w3.org/2000/svg"
 xmlns:xlink="http://www.w3.org/1999/xlink"
 width="120px" height="133px">
<path fill-rule="evenodd"  fill="rgb(255, 255, 255)"
 d="M48.0,0.0 C55.665,0.0 63.334,0.0 70.999,0.0 C71.999,6.332 73.0,12.667 74.0,19.0 C80.999,22.666 88.0,26.333 94.999,30.0 C100.536,25.50 106.115,22.726 113.0,26.999 C115.333,31.666 117.666,36.333 119.999,41.0 C117.479,50.406 109.846,50.390 105.999,59.0 C106.333,65.666 106.666,72.334 106.999,79.0 C123.728,86.380 119.157,96.655 109.999,108.999 C103.667,107.333 97.332,105.666 90.999,104.0 C85.959,106.651 76.906,111.66 74.0,115.999 C73.0,121.666 71.999,127.333 70.999,132.999 C63.667,132.999 56.332,132.999 48.999,132.999 C47.445,127.312 47.711,118.811 44.999,113.0 C38.189,111.147 33.901,107.608 29.0,104.0 C20.135,104.635 16.618,109.888 10.0,107.999 C4.479,104.479 0.299,96.742 0.0,88.0 C4.332,84.333 8.667,80.666 13.0,77.0 C13.158,68.149 14.61,58.413 11.0,52.0 C7.333,50.0 3.666,47.999 0.0,46.0 C0.152,35.219 4.676,30.517 9.0,24.0 C18.683,24.487 21.435,29.133 29.0,28.999 C34.666,25.333 40.333,21.666 46.0,17.999 C46.666,12.0 47.333,5.999 48.0,0.0 ZM54.999,48.0 C49.227,52.210 46.542,55.696 42.0,61.0 C41.400,73.834 45.413,81.513 54.999,84.0 C58.666,84.0 62.333,84.0 66.0,84.0 C72.819,79.551 77.419,74.835 78.0,64.0 C72.833,54.62 70.646,47.689 54.999,48.0 Z"/>
</svg>